{"title":"CSI New York [6x08] HDTV - AC3 - Spanish avi","uid":5572853,"size":455305216,"categoryP":"video","categoryS":"tv_shows","magnet":"?xt=urn:btih:921ff47a197f8975a1b370123380db89befb562f&amp;dn=CSI+New+York+%5B6x08%5D+HDTV+-+AC3+-+Spanish+avi&amp;tr=udp%3A%2F%2Ftracker.openbittorrent.com%3A80&amp;tr=udp%3A%2F%2Fopen.demonii.com%3A1337&amp;tr=udp%3A%2F%2Ftracker.coppersurfer.tk%3A6969&amp;tr=udp%3A%2F%2Fexodus.desync.com%3A6969","seeders":0,"leechers":1,"uploader":"fleqii","files":1,"time":1274299937,"description":"I:TorrentsCSI New York [6x08] HDTV - AC3 - Spanish.avi\n   General\n      Complete name : I:TorrentsCSI New York [6x08] HDTV - AC3 - Spanish.avi\n      Format : AVI\n      Format/Info : Audio Video Interleave\n      File size : 434 MiB\n      Duration : 41mn 17s\n      Overall bit rate : 1 470 Kbps\n      Writing application : VirtualDubMod 1.5.10.2 (build 2540/release)\n      Writing library : VirtualDubMod build 2540/release\n   Video #0\n      ID : 0\n      Format : MPEG-4 Visual\n      Format profile : AdvancedSimple@L5\n      Format settings, BVOP : Yes\n      Format settings, QPel : No\n      Format settings, GMC : No warppoints\n      Format settings, Matrix : Default (H.263)\n      Codec ID : XVID\n      Codec ID/Hint : XviD\n      Duration : 41mn 17s\n      Bit rate : 1 012 Kbps\n      Width : 624 pixels\n      Height : 352 pixels\n      Display aspect ratio : 16:9\n      Frame rate : 25.000 fps\n      Original frame rate : 23.976 fps\n      Resolution : 24 bits\n      Colorimetry : 4:2:0\n      Scan type : Progressive\n      Bits/(Pixel*Frame) : 0.184\n      Stream size : 299 MiB (69%)\n      Writing library : XviD 1.2.1 (UTC 2008-12-04)\n   Audio #1\n      ID : 1\n      Format : AC-3\n      Format/Info : Audio Coding 3\n      Codec ID : 2000\n      Duration : 41mn 17s\n      Bit rate mode : Constant\n      Bit rate : 448 Kbps\n      Channel(s) : 2 channels\n      Channel positions : L R\n      Sampling rate : 48.0 KHz\n      Stream size : 132 MiB (30%)\n      Alignment : Split accross interleaves\n      Interleave, duration : 40 ms (1.00 video frame)\n      Interleave, preload duration : 500 ms","torrent":{"xt":"urn:btih:921ff47a197f8975a1b370123380db89befb562f","amp;dn":"CSI+New+York+%5B6x08%5D+HDTV+-+AC3+-+Spanish+avi","amp;tr":["udp%3A%2F%2Ftracker.openbittorrent.com%3A80","udp%3A%2F%2Fopen.demonii.com%3A1337","udp%3A%2F%2Ftracker.coppersurfer.tk%3A6969","udp%3A%2F%2Fexodus.desync.com%3A6969"],"infoHash":"921ff47a197f8975a1b370123380db89befb562f","infoHashBuffer":{"type":"Buffer","data":[146,31,244,122,25,127,137,117,161,179,112,18,51,128,219,137,190,251,86,47]},"announce":[],"urlList":[]}}